<?xml version="1.0" encoding="UTF-8" standalone="no"?>
<!-- Generator: Adobe Illustrator 15.0.0, SVG Export Plug-In . SVG Version: 6.00 Build 0)  -->

<svg
   xmlns:dc="http://purl.org/dc/elements/1.1/"
   xmlns:cc="http://creativecommons.org/ns#"
   xmlns:rdf="http://www.w3.org/1999/02/22-rdf-syntax-ns#"
   xmlns:svg="http://www.w3.org/2000/svg"
   xmlns="http://www.w3.org/2000/svg"
   xmlns:sodipodi="http://sodipodi.sourceforge.net/DTD/sodipodi-0.dtd"
   xmlns:inkscape="http://www.inkscape.org/namespaces/inkscape"
   contentScriptType="application/ecmascript"
   contentStyleType="text/css"
   enable-background="new 0 0 48 48"
   height="36"
   id="????????_1"
   preserveAspectRatio="xMidYMid meet"
   style="fill:#3366ff"
   version="1.1"
   viewBox="0 0 36 36"
   width="36"
   x="0px"
   xml:space="preserve"
   y="0px"
   zoomAndPan="magnify"
   inkscape:version="0.91 r13725"
   sodipodi:docname="harddisk.svg"><metadata
     id="metadata15"><rdf:RDF><cc:Work
         rdf:about=""><dc:format>image/svg+xml</dc:format><dc:type
           rdf:resource="http://purl.org/dc/dcmitype/StillImage" /><dc:title></dc:title></cc:Work></rdf:RDF></metadata><defs
     id="defs13" /><sodipodi:namedview
     pagecolor="#ffffff"
     bordercolor="#666666"
     borderopacity="1"
     objecttolerance="10"
     gridtolerance="10"
     guidetolerance="10"
     inkscape:pageopacity="0"
     inkscape:pageshadow="2"
     inkscape:window-width="852"
     inkscape:window-height="480"
     id="namedview11"
     showgrid="false"
     fit-margin-top="0"
     fit-margin-left="0"
     fit-margin-right="0"
     fit-margin-bottom="0"
     inkscape:zoom="4.9166667"
     inkscape:cx="18"
     inkscape:cy="18"
     inkscape:window-x="0"
     inkscape:window-y="0"
     inkscape:window-maximized="0"
     inkscape:current-layer="????????_1" /><path
     d="m 0,22 0,10 c 0,2.209 1.791,4 4,4 l 28,0 c 2.209,0 4,-1.791 4,-4 L 36,22 0,22 Z"
     id="path3"
     inkscape:connector-curvature="0"
     style="fill:#78909c" /><path
     d="m 36,22 c 0,2.209 -1.791,4 -4,4 L 4,26 C 1.791,26 0,24.209 0,22 L 3,4 C 3.219,1.906 4.791,0 7,0 l 22,0 c 2.209,0 3.688,1.75 4,4 l 3,18 z"
     id="path5"
     inkscape:connector-curvature="0"
     style="fill:#455a64" /><circle
     cx="29"
     cy="31"
     r="2"
     id="circle7"
     style="fill:#64dd17" /><path
     d="M 18,5 C 11.373,5 6,8.134 6,12 c 0,3.865 5.373,7 12,7 6.627,0 12,-3.135 12,-7 C 30,8.134 24.627,5 18,5 Z m 0,8.555 c -1.473,0 -2.667,-0.695 -2.667,-1.555 0,-0.86 1.194,-1.556 2.667,-1.556 1.473,0 2.666,0.696 2.666,1.556 0,0.86 -1.193,1.555 -2.666,1.555 z"
     id="path9"
     inkscape:connector-curvature="0"
     style="fill:#bbdefb" /></svg>